<?xml version="1.0" encoding="UTF-8" standalone="no"?>
<!-- Created with Inkscape (http://www.inkscape.org/) -->

<svg
   xmlns:dc="http://purl.org/dc/elements/1.1/"
   xmlns:cc="http://creativecommons.org/ns#"
   xmlns:rdf="http://www.w3.org/1999/02/22-rdf-syntax-ns#"
   xmlns:svg="http://www.w3.org/2000/svg"
   xmlns="http://www.w3.org/2000/svg"
   xmlns:sodipodi="http://sodipodi.sourceforge.net/DTD/sodipodi-0.dtd"
   xmlns:inkscape="http://www.inkscape.org/namespaces/inkscape"
   id="svg2"
   version="1.1"
   inkscape:version="0.91 r13725"
   width="15.999623"
   height="13.011702"
   viewBox="0 0 15.999623 13.011702"
   sodipodi:docname="twitter.svg">
  <metadata
     id="metadata8">
    <rdf:RDF>
      <cc:Work
         rdf:about="">
        <dc:format>image/svg+xml</dc:format>
        <dc:type
           rdf:resource="http://purl.org/dc/dcmitype/StillImage" />
        <dc:title></dc:title>
      </cc:Work>
    </rdf:RDF>
  </metadata>
  <defs
     id="defs6" />
  <sodipodi:namedview
     pagecolor="#ffffff"
     bordercolor="#666666"
     borderopacity="1"
     objecttolerance="10"
     gridtolerance="10"
     guidetolerance="10"
     inkscape:pageopacity="0"
     inkscape:pageshadow="2"
     inkscape:window-width="1267"
     inkscape:window-height="654"
     id="namedview4"
     showgrid="false"
     fit-margin-top="0"
     fit-margin-left="0"
     fit-margin-right="0"
     fit-margin-bottom="0"
     inkscape:zoom="10.887699"
     inkscape:cx="9.1254877"
     inkscape:cy="3.2486017"
     inkscape:window-x="29"
     inkscape:window-y="18"
     inkscape:window-maximized="0"
     inkscape:current-layer="svg2" />
  <path
     style="fill:#666666;fill-opacity:1"
     d="m 4.7565339,13.007278 c -0.50139,-0.017 -0.95274,-0.0646 -1.41395,-0.14919 -1.14114,-0.20935 -2.22037,-0.62528 -3.21745,-1.23997 -0.0698,-0.043 -0.12615,-0.0791 -0.125120001308,-0.0801 0.0010000013,-9.9e-4 0.03710000131,0.002 0.08010000131,0.007 0.36735,0.0402 0.88448,0.045 1.26686,0.0118 1.08452,-0.0942 2.09627,-0.44024 3.01971,-1.03289 0.15253,-0.0979 0.48545,-0.33542 0.48649,-0.34711 1.9e-4,-0.002 -0.0285,-0.004 -0.0638,-0.005 -0.0353,-5.2e-4 -0.0979,-0.004 -0.1392,-0.007 -0.68174,-0.0567 -1.30761,-0.3134197 -1.84243,-0.7555897 -0.10347,-0.0855 -0.34706,-0.33212 -0.43376,-0.43908 -0.24834,-0.30637 -0.42691,-0.62403 -0.5587,-0.99389 -0.0152,-0.0426 -0.0268,-0.0783 -0.0258,-0.0793 10e-4,-10e-4 0.0328,0.003 0.0705,0.01 0.20874,0.0353 0.36922,0.0463 0.60986,0.0421 0.27103,-0.005 0.447,-0.0265 0.70381,-0.0869 0.0801,-0.0188 0.10915,-0.0302 0.0772,-0.0302 -0.009,0 -0.0715,-0.014 -0.13928,-0.0312 -0.76673,-0.19382 -1.44279,-0.6647 -1.89538,-1.32016 -0.31629,-0.45804 -0.50523,-0.97236 -0.56423,-1.53587 -0.0112,-0.10737 -0.0194,-0.36874 -0.0115,-0.36508 0.003,0.001 0.0662,0.0325 0.14019,0.0691 0.31189,0.15431 0.63285,0.25457 0.97596,0.30488 0.0904,0.0133 0.28386,0.0316 0.33368,0.0317 l 0.0303,5e-5 -0.0709,-0.0508 c -0.15189,-0.10871 -0.26665,-0.20465 -0.39537,-0.33053 -0.2799,-0.27375 -0.49402,-0.57118 -0.66452,-0.92311 -0.17483,-0.36089 -0.27588,-0.72839 -0.31651,-1.15113 -0.0101,-0.10516 -0.0102,-0.44478 -8e-5,-0.55366 0.0433,-0.4680602 0.17815,-0.9153102 0.39253,-1.30196023 l 0.041,-0.0739 0.0636,0.0764 c 0.67535,0.81135003 1.50167,1.51680023 2.41003,2.05753023 1.24154,0.73904 2.65605,1.18437 4.0789497,1.28415 0.0757,0.005 0.15559,0.011 0.17753,0.0127 l 0.0399,0.003 -0.004,-0.0233 c -0.002,-0.0128 -0.012,-0.0669 -0.0222,-0.12027 -0.0191,-0.0996 -0.0326,-0.19674 -0.0457,-0.32845 -0.01,-0.10079 -0.01,-0.44736 5e-5,-0.55367 0.0405,-0.42933 0.14399,-0.8012 0.32646,-1.1730202 0.22864,-0.46589 0.56191,-0.86719003 0.98314,-1.18384003 0.32961,-0.24776 0.72821,-0.43963 1.1344304,-0.54607 0.50765,-0.13301 1.05567,-0.14035 1.57654,-0.0211 0.19633,0.0449 0.39845,0.11281 0.59502,0.19978 0.35389,0.15658 0.68855,0.38569 0.97411,0.6669 l 0.0867,0.0854 0.11051,-0.0239 c 0.45851,-0.0991 0.89803,-0.24410003 1.3367,-0.44112003 0.12174,-0.0547 0.40503,-0.19922 0.52492,-0.26784 0.0582,-0.0333 0.10649,-0.0598 0.10736,-0.0589 8.8e-4,9e-4 -0.008,0.0298 -0.0199,0.0642 -0.10849,0.31551 -0.27276,0.62494 -0.47494,0.89463003 -0.18133,0.24187 -0.42045,0.4809 -0.66272,0.66245 -0.072,0.0539 -0.19754,0.1392602 -0.24919,0.1693102 -0.0165,0.01 -0.029,0.0184 -0.0278,0.0196 10e-4,0.001 0.0687,-0.007 0.14993,-0.0191 0.56286,-0.0811 1.1172,-0.2351202 1.6309,-0.4531302 0.0496,-0.021 0.0912,-0.0372 0.0925,-0.0359 0.003,0.003 -0.13146,0.19497 -0.19729,0.28243 -0.38642,0.5134002 -0.8283,0.9556402 -1.33908,1.3401702 l -0.09,0.0678 -10e-4,0.41587 c -10e-4,0.40481 -0.003,0.46711 -0.0256,0.73806 -0.16039,1.94271 -0.95154,3.86947 -2.20774,5.3767 -1.5676,1.8808897 -3.7357804,2.9981697 -6.2220201,3.2062997 -0.37964,0.0318 -0.83047,0.0449 -1.16051,0.0337 z"
     id="path4256"
     inkscape:connector-curvature="0"
     inkscape:export-xdpi="0.44963843"
     inkscape:export-ydpi="0.44963843" />
</svg>
